<?xml version="1.0" encoding="utf-8"?>
<!-- Generator: Adobe Illustrator 17.1.0, SVG Export Plug-In . SVG Version: 6.00 Build 0)  -->
<!DOCTYPE svg PUBLIC "-//W3C//DTD SVG 1.0//EN" "http://www.w3.org/TR/2001/REC-SVG-20010904/DTD/svg10.dtd">
<svg version="1.0" id="图层_1" xmlns="http://www.w3.org/2000/svg" xmlns:xlink="http://www.w3.org/1999/xlink" x="0px" y="0px"
	 viewBox="0 0 200 200" enable-background="new 0 0 200 200" xml:space="preserve">
<g>
	<g>
		<defs>
			<rect id="SVGID_1_" y="58.1" width="200" height="69.3"/>
		</defs>
		<clipPath id="SVGID_2_">
			<use xlink:href="#SVGID_1_"  overflow="visible"/>
		</clipPath>
		<polygon clip-path="url(#SVGID_2_)" fill="#040000" points="103,99.7 120.2,99.7 121.1,96.6 103.9,96.6 		"/>
		<polygon clip-path="url(#SVGID_2_)" fill="#040000" points="123.2,92.4 126.7,80.7 123.2,80.7 120.7,89.3 116.3,89.3 119.9,77.2 
			116.6,77.2 113.1,89.3 108.7,89.3 111.2,80.7 108,80.7 104.5,92.4 		"/>
		<g clip-path="url(#SVGID_2_)">
			<defs>
				<rect id="SVGID_3_" y="58.1" width="200" height="69.3"/>
			</defs>
			<clipPath id="SVGID_4_">
				<use xlink:href="#SVGID_3_"  overflow="visible"/>
			</clipPath>
			<path clip-path="url(#SVGID_4_)" fill="#040000" d="M91.2,93.8c5.8-4.4,13.1-11,17.7-16.6l-4.1,0c-3.4,4.1-7.1,7.5-11.8,11.2
				L91.2,93.8z"/>
			<path clip-path="url(#SVGID_4_)" fill="#040000" d="M120.5,108.1c0,0-3.8,2.6-6.2,4l2.4-8c0,0-14.3-0.1-14.5,0
				c-0.9,4.3-1.8,8.7-5.9,11.8c-0.6,2.1-0.8,3-1.6,5.4c4.4-3.7,7.4-5,9.8-13l0.3-1.1h7.6l-1.3,4.2c-0.4,1.9-2.7,4-2.7,4l1.8,2.7
				c1.3-0.9,9.2-5.6,9.2-5.6L120.5,108.1z"/>
			<path clip-path="url(#SVGID_4_)" fill="#040000" d="M104.4,89.8H101c-4.2,5.1-8.3,9.2-12.5,12.9l-1.6,5.1c0,0,0,0.1,0,0.1
				c0.8-0.6,2.1-1.8,3.4-2.9c1.4-1.3,2.4-2.2,3-2.7l-5.9,19.5h3.5l7.3-24.5C100.2,95.2,103,91.9,104.4,89.8"/>
			<path clip-path="url(#SVGID_4_)" fill="#040000" d="M133.1,85.5c1.9-2.7,3.6-5.9,4.7-8.3h-3.4c-3.9,7.1-5.5,10.3-10.4,15.9
				c-0.5,1.8-0.9,3.3-1.7,5.8c1.2-1,2.8-2.3,3.6-3.4c-0.8,5.1-0.8,9.7,0,13.8c-2.4,2.8-2.9,3.7-8.9,7.8c-0.6,2-0.8,2.6-1.7,5.2
				c5.4-4,9.2-7.1,11.3-9.6c1.4,3.4,4.7,7,6.9,9.6c0.8-2,0.8-2.2,1.6-4.1c-3-3.1-5.1-7-5.5-9c3.9-4.7,7.6-11.5,11.1-20.5h3l1-3.3
				H133.1z M129.1,105.4c-0.6-4.2-0.2-9.6,1.3-16.1c0.2-0.1,0.6-0.6,0.6-0.6h6.3C134.7,95.5,132,101.1,129.1,105.4"/>
			<path clip-path="url(#SVGID_4_)" fill="#040000" d="M155.8,77.2h3.9L156,89.9h5l-1,3.3h-5l-8.7,28.9h-3.9l8.7-28.9h-5.2l1-3.3
				h5.2L155.8,77.2z M154.2,108.2h26.9l0.8-2.7h3.9l-0.8,2.7h8.5l-0.9,2.9h-8.5l-1.6,5.4c-0.9,3.3-3.5,5-8,5c-2.6,0-5.4-0.1-5.4-0.1
				s0.6-1.8,0.9-3.3c2.2,0.1,4.3,0.1,5,0.1c2.2,0,3.4-0.7,3.7-2.1l1.5-5h-26.9L154.2,108.2z M160.3,113.7l3.4-1.7
				c1.9,1.8,3.7,3.5,5.2,5.4l-3.5,1.5C164,117.1,162.3,115.4,160.3,113.7 M192.8,82h7.2l-0.9,3.1h-16.7l-0.9,3.1h13.5l-5.2,17.5H186
				l0.8-2.8H177l-0.8,2.7h-3.7l0.8-2.7h-10l-0.8,2.8h-3.7l5.3-17.5h13.7l0.9-3.1h-16.3l0.9-3.1h16.3l1.5-4.8h3.7l-1.5,4.8h8.9H192.8
				z M165.1,96.9l-0.9,3.1h10l0.9-3.1H165.1z M166.9,91l-0.9,3.1h10l0.9-3.1H166.9z M178.8,96.9l-0.9,3.1h9.8l0.9-3.1H178.8z
				 M190.4,91h-9.8l-0.9,3.1h9.8L190.4,91z"/>
			<polygon clip-path="url(#SVGID_4_)" fill="#040000" points="194.2,82.1 190.7,82.1 191.9,78.2 195.4,78.2 			"/>
			<path clip-path="url(#SVGID_4_)" fill="#040000" d="M64.3,91.5c-1.2-0.4-2-0.6-1.4-2.2c1.4-3.4,1.5-6.4,0-8.5
				c-2.8-4-10.4-3.8-19.1-0.1c0,0-2.7,1.2-2-1c1.3-4.3,1.1-7.9-0.9-10c-4.7-4.7-17.3,0.2-28.1,11C4.7,88.7,0,97.3,0,104.7
				c0,14.2,18.2,22.8,35.9,22.8c23.3,0,38.8-13.5,38.8-24.3C74.7,96.7,69.2,93,64.3,91.5 M36,122.3c-14.2,1.4-26.4-5-27.3-14.3
				c-0.9-9.3,9.8-18,24-19.4C46.8,87.3,59,93.7,60,103C60.9,112.3,50.1,120.9,36,122.3"/>
			<path clip-path="url(#SVGID_4_)" fill="#040000" d="M79.8,65.6c-5.6-6.2-13.9-8.6-21.6-7h0c-1.8,0.4-2.9,2.1-2.5,3.9
				c0.4,1.8,2.1,2.9,3.9,2.5c5.4-1.2,11.3,0.5,15.3,5c4,4.4,5.1,10.5,3.4,15.8v0c-0.6,1.7,0.4,3.6,2.1,4.1c1.7,0.6,3.6-0.4,4.1-2.1
				v0C86.9,80.3,85.4,71.8,79.8,65.6"/>
			<path clip-path="url(#SVGID_4_)" fill="#040000" d="M71.1,73.4c-2.7-3-6.8-4.2-10.5-3.4c-1.5,0.3-2.5,1.8-2.2,3.4
				c0.3,1.5,1.8,2.5,3.3,2.2v0c1.8-0.4,3.8,0.2,5.1,1.7c1.3,1.5,1.7,3.5,1.1,5.3h0c-0.5,1.5,0.3,3.1,1.8,3.6
				c1.5,0.5,3.1-0.3,3.6-1.8C74.6,80.5,73.9,76.4,71.1,73.4"/>
			<path clip-path="url(#SVGID_4_)" fill="#040000" d="M37.4,95.8c-6.7-1.8-14.4,1.6-17.3,7.5c-3,6.1-0.1,12.8,6.7,15
				c7.1,2.3,15.4-1.2,18.3-7.8C47.9,104.2,44.4,97.6,37.4,95.8 M32.2,111.3c-1.4,2.2-4.3,3.1-6.5,2.1c-2.2-1-2.8-3.5-1.5-5.7
				c1.4-2.1,4.2-3.1,6.4-2.2C32.9,106.6,33.6,109.1,32.2,111.3 M36.7,105.5c-0.5,0.8-1.6,1.3-2.4,0.9c-0.8-0.4-1.1-1.3-0.6-2.1
				c0.5-0.8,1.5-1.2,2.4-0.9C36.9,103.7,37.2,104.6,36.7,105.5"/>
		</g>
	</g>
</g>
</svg>
